PathFileType	4	(X/Y/Z)	c:/Users/goper/Files/vsCode/490R/osim_files/C06/C06_Slow_06.trc
DataRate	CameraRate	NumFrames	NumMarkers	Units                	OrigDataRate	OrigDataStartFrame	OrigNumFrames
250.00	250.00	4	36	mm	250.0	3137	4182
                Frame#	Time	LPSIS			LASIS			LTH1			LTH2			LTH3			LTH4			LLFE			LMFE			LSH1			LSH2			LSH3			LSH4			LLMAL			LMMAL			LCAL			LMTP5			LTOE			LMTP1			RPSIS			RASIS			RTH1			RTH2			RTH3			RTH4			RLFE			RMFE			RSH1			RSH2			RSH3			RSH4			RLMAL			RMMAL			RCAL			RMTP1			RTOE			RMTP5		
		X1	Y1	Z1	X2	Y2	Z2	X3	Y3	Z3	X4	Y4	Z4	X5	Y5	Z5	X6	Y6	Z6	X7	Y7	Z7	X8	Y8	Z8	X9	Y9	Z9	X10	Y10	Z10	X11	Y11	Z11	X12	Y12	Z12	X13	Y13	Z13	X14	Y14	Z14	X15	Y15	Z15	X16	Y16	Z16	X17	Y17	Z17	X18	Y18	Z18	X19	Y19	Z19	X20	Y20	Z20	X21	Y21	Z21	X22	Y22	Z22	X23	Y23	Z23	X24	Y24	Z24	X25	Y25	Z25	X26	Y26	Z26	X27	Y27	Z27	X28	Y28	Z28	X29	Y29	Z29	X30	Y30	Z30	X31	Y31	Z31	X32	Y32	Z32	X33	Y33	Z33	X34	Y34	Z34	X35	Y35	Z35	X36	Y36	Z36

3137	12.54400	-2781.38965	965.32196	134.17879	-2967.52075	949.95276	216.00021	-2964.11304	744.83606	293.72800	-2996.27661	690.79486	288.62115	-3027.97974	777.67297	268.58636	-3050.94385	721.39661	266.02643	-3123.19507	477.51413	219.26497	-3106.65381	461.60254	103.80849	-3086.06714	360.22308	244.05220	-3099.40063	318.52426	239.81882	-3149.07861	373.19785	231.32864	-3152.15698	329.21246	228.10089	-3142.83325	88.70514	183.28375	-3148.22778	109.79323	109.56429	-3079.20801	68.81492	138.35184	-3258.85059	36.15461	195.24771	-3305.46948	63.49476	127.89401	-3273.26367	37.15925	88.16790	-2779.43311	965.55243	66.27999	-2955.71973	926.21167	-22.88316	-2814.38721	752.32428	-83.81921	-2805.14282	689.33752	-72.70509	-2889.07104	738.48529	-76.40260	-2872.65015	678.04236	-69.94125	-2716.71313	444.66400	-18.50166	-2753.81641	442.30905	83.23966	-2626.67358	413.56320	-26.51294	-2600.40381	372.74585	-25.71006	-2676.01196	371.94540	-24.56938	-2644.12305	337.87299	-23.27466	-2477.49365	146.28152	27.11335	-2507.34424	167.97484	101.90997	-2403.12036	150.58121	73.18649	-2573.77026	42.30884	124.12516	-2600.51904	42.12546	76.02309	-2549.95435	29.61949	11.65607
3138	12.54800	-2787.05835	965.97650	133.97966	-2973.06812	950.94971	216.19557	-2970.25635	746.01801	294.10815	-3002.42212	692.02332	288.98654	-3033.65698	778.83063	268.11493	-3056.77246	722.57611	265.63242	-3127.97876	478.11719	218.41533	-3111.65869	462.38260	103.64185	-3089.94263	360.88403	244.17958	-3103.04590	318.95581	239.94562	-3153.22485	373.18033	230.90541	-3155.72485	329.09464	227.66965	-3143.39673	88.87721	183.10666	-3142.72974	112.78393	106.61613	-3079.34790	68.91202	138.41489	-3259.35278	36.41216	197.79788	-3305.77515	62.11453	128.08051	-3273.59692	36.62202	88.17384	-2784.71509	966.28418	65.80125	-2961.72217	926.47491	-22.50237	-2820.63452	752.22668	-83.21403	-2811.66455	689.27356	-72.18613	-2894.26733	738.59430	-76.26553	-2879.17310	678.10608	-69.47086	-2723.97607	444.31027	-19.02122	-2761.39795	441.59647	82.83889	-2633.60645	414.22046	-27.07241	-2607.14575	373.70020	-25.55371	-2682.44531	372.04797	-25.09533	-2650.06567	338.35489	-23.84265	-2481.07886	148.79950	26.13412	-2511.02197	170.12236	100.99711	-2406.73438	155.15054	71.99730	-2574.63013	42.69791	124.04650	-2601.27539	41.83097	75.92660	-2550.58252	29.90160	11.55896
3139	12.55200	-2792.70703	966.67664	133.74477	-2978.61206	951.97113	216.41824	-2976.25513	747.13452	294.47748	-3008.66089	693.30884	289.36462	-3039.38428	779.95538	267.68256	-3062.69946	723.78326	265.31500	-3133.02832	478.20151	218.65230	-3116.51514	462.98468	103.46111	-3093.98853	361.42889	244.33714	-3106.54932	319.31229	239.92377	-3157.27539	373.14880	230.42363	-3159.24658	328.93787	227.15836	-3143.91626	88.97783	182.97047	-3141.38721	113.86262	105.90359	-3079.25854	69.23998	137.96806	-3259.27832	35.21395	195.70615	-3306.14966	60.91554	128.34889	-3273.97900	36.02551	88.30804	-2788.74487	967.22876	65.37125	-2967.69653	926.80316	-22.08975	-2826.94507	752.20667	-82.64553	-2818.27197	689.14423	-71.63577	-2901.02710	738.60443	-75.92966	-2885.82104	678.21191	-69.02679	-2731.56470	443.88766	-19.59324	-2769.12280	440.79379	82.34527	-2640.74487	414.90784	-27.75429	-2613.78833	374.78348	-26.31191	-2689.01904	372.12683	-25.74847	-2656.26172	338.82364	-24.50417	-2484.98047	151.25932	25.18934	-2514.94604	172.37622	99.99611	-2410.89844	159.76619	70.89441	-2575.47876	42.92611	124.28950	-2602.11792	41.56649	75.79890	-2551.27075	30.25388	11.41975
3140	12.55600	-2798.39282	967.46448	133.53061	-2984.19385	953.04486	216.66817	-2982.26953	748.35345	294.80029	-3014.69116	694.46100	289.65335	-3045.12866	781.11658	267.23013	-3068.48071	724.99561	264.84702	-3138.01172	478.10352	218.55444	-3121.16357	463.44226	103.31892	-3098.14575	361.93546	244.52850	-3109.87109	319.55682	239.85854	-3160.99634	373.02029	229.86032	-3162.61279	328.79767	226.60785	-3144.37500	88.97849	182.77203	-3144.09595	105.49626	111.57885	-3079.35718	69.40408	137.89967	-3260.11548	35.33327	194.90564	-3306.43188	59.73910	128.46516	-3274.26196	35.41783	88.45847	-2796.63062	967.17639	65.39333	-2973.70996	927.19495	-21.63989	-2833.35840	752.12048	-82.06141	-2824.92822	688.95026	-71.13429	-2909.96069	739.12189	-74.16448	-2892.59888	678.39105	-68.56361	-2739.26074	443.40002	-20.21766	-2777.04688	439.91977	81.65440	-2647.99316	415.60202	-28.58998	-2620.30933	376.03735	-27.68589	-2695.96826	372.21704	-26.43890	-2662.66846	339.25580	-25.27380	-2488.88354	153.90395	24.20128	-2518.98145	174.63158	98.92465	-2415.34424	164.44142	69.73855	-2576.44067	43.83797	123.74902	-2602.77490	41.30767	75.72610	-2551.91333	30.69504	11.26934
